<svg xmlns="http://www.w3.org/2000/svg" version="1.1" xmlns:xlink="http://www.w3.org/1999/xlink" xmlns:svgjs="http://svgjs.dev/svgjs" width="1440" height="460" preserveAspectRatio="none" viewBox="0 0 1440 460"><g mask="url(&quot;#SvgjsMask1008&quot;)" fill="none"><path d="M204.15 540.77C352.95 508.46 405.6 125.76 643.18 118.61 880.77 111.46 862.7 176.11 1082.22 176.11 1301.73 176.11 1410.55 118.73 1521.25 118.61" stroke="rgba(255, 255, 255, 1)" stroke-width="2"></path><path d="M878.54 480.86C962.56 467.06 925.07 270.1 1139.61 262.12 1354.14 254.14 1527.02 129.77 1661.74 128.72" stroke="rgba(255, 255, 255, 1)" stroke-width="2"></path><path d="M620.8 494.08C738.97 471.31 690.28 178.41 977.64 171 1265.01 163.59 1511.28 74.62 1691.33 74.4" stroke="rgba(255, 255, 255, 1)" stroke-width="2"></path><path d="M642.18 488.54C753.78 468.05 722.79 188.73 982.2 187.92 1241.62 187.11 1490.01 297.96 1662.25 298.32" stroke="rgba(255, 255, 255, 1)" stroke-width="2"></path><path d="M742.69 541.61C861.01 521.13 918.56 230.28 1107.02 228.64 1295.49 227 1375.51 346.72 1471.36 348.24" stroke="rgba(255, 255, 255, 1)" stroke-width="2"></path></g><defs><mask id="SvgjsMask1008"><rect width="1440" height="460" fill="#ffffff"></rect></mask></defs></svg>